<svg aria-hidden="true" style="position: absolute; width: 0; height: 0; overflow: hidden;" version="1.1" xmlns="http://www.w3.org/2000/svg" xmlns:xlink="http://www.w3.org/1999/xlink">
<defs>
<symbol id="icon-astronaut" viewBox="0 0 64 64">
<path fill="#2196f3" style="fill: var(--color1, #2196f3)" d="M63.948 9.048c-0.126-0.385-0.459-0.667-0.861-0.725l-3.821-0.556-1.71-3.462c-0.358-0.73-1.554-0.73-1.913 0l-1.71 3.462-3.821 0.556c-0.402 0.059-0.735 0.339-0.862 0.725-0.125 0.386-0.021 0.811 0.27 1.093l2.766 2.696-0.653 3.806c-0.068 0.4 0.096 0.804 0.423 1.043 0.332 0.241 0.765 0.271 1.124 0.081l3.418-1.797 3.418 1.797c0.156 0.082 0.328 0.123 0.497 0.123 0.221 0 0.442-0.068 0.627-0.204 0.328-0.239 0.493-0.643 0.423-1.043l-0.653-3.806 2.766-2.696c0.29-0.284 0.394-0.707 0.269-1.093zM59.022 11.702c-0.251 0.244-0.366 0.598-0.306 0.944l0.382 2.228-2.001-1.052c-0.156-0.082-0.326-0.123-0.497-0.123s-0.34 0.040-0.497 0.123l-2.001 1.052 0.382-2.228c0.060-0.346-0.056-0.699-0.306-0.944l-1.62-1.579 2.238-0.325c0.348-0.050 0.648-0.269 0.803-0.584l1.001-2.027 1.001 2.027c0.156 0.315 0.456 0.533 0.803 0.584l2.238 0.325-1.618 1.579z"></path>
<path fill="#2196f3" style="fill: var(--color1, #2196f3)" d="M52.267 41.044h-2.133v2.133h2.133v-2.133z"></path>
<path fill="#2196f3" style="fill: var(--color1, #2196f3)" d="M52.267 45.311h-2.133v2.133h2.133v-2.133z"></path>
<path fill="#2196f3" style="fill: var(--color1, #2196f3)" d="M54.4 43.178h-2.133v2.133h2.133v-2.133z"></path>
<path fill="#2196f3" style="fill: var(--color1, #2196f3)" d="M50.134 43.178h-2.133v2.133h2.133v-2.133z"></path>
<path fill="#2196f3" style="fill: var(--color1, #2196f3)" d="M44.8 52.778h-2.133v2.133h2.133v-2.133z"></path>
<path fill="#2196f3" style="fill: var(--color1, #2196f3)" d="M44.8 57.045h-2.133v2.133h2.133v-2.133z"></path>
<path fill="#2196f3" style="fill: var(--color1, #2196f3)" d="M46.933 54.911h-2.133v2.133h2.133v-2.133z"></path>
<path fill="#2196f3" style="fill: var(--color1, #2196f3)" d="M42.667 54.911h-2.133v2.133h2.133v-2.133z"></path>
<path fill="#2196f3" style="fill: var(--color1, #2196f3)" d="M32 48.511h-2.133v2.133h2.133v-2.133z"></path>
<path fill="#2196f3" style="fill: var(--color1, #2196f3)" d="M32 52.778h-2.133v2.133h2.133v-2.133z"></path>
<path fill="#2196f3" style="fill: var(--color1, #2196f3)" d="M34.133 50.645h-2.133v2.133h2.133v-2.133z"></path>
<path fill="#2196f3" style="fill: var(--color1, #2196f3)" d="M29.866 50.645h-2.133v2.133h2.133v-2.133z"></path>
<path fill="#2196f3" style="fill: var(--color1, #2196f3)" d="M11.733 12.244h-2.133v2.133h2.133v-2.133z"></path>
<path fill="#2196f3" style="fill: var(--color1, #2196f3)" d="M11.733 16.511h-2.133v2.133h2.133v-2.133z"></path>
<path fill="#2196f3" style="fill: var(--color1, #2196f3)" d="M13.866 14.377h-2.133v2.133h2.133v-2.133z"></path>
<path fill="#2196f3" style="fill: var(--color1, #2196f3)" d="M9.599 14.377h-2.133v2.133h2.133v-2.133z"></path>
<path fill="#212121" style="fill: var(--color2, #212121)" d="M49.429 28.319c-0.575-0.776-1.419-1.275-2.377-1.409-0.962-0.137-1.912 0.116-2.68 0.704l-2.505 1.92-3.795 2.834-2.716-1.082c4.843-2.173 8.227-7.017 8.227-12.64 0-7.646-6.245-13.867-13.922-13.867s-13.922 6.221-13.922 13.867c0 2.771 0.829 5.348 2.24 7.517l-5.528-0.048c-0.003 0-0.006 0-0.010 0-0.017 0-0.031 0.009-0.047 0.010-0.106 0.004-0.209 0.026-0.31 0.062-0.026 0.010-0.052 0.015-0.077 0.027-0.013 0.005-0.026 0.006-0.038 0.013l-6.466 3.193c-0.001 0-0.002 0-0.002 0.001l-3.787 1.821c-0.042 0.018-0.084 0.043-0.126 0.070-1.509 1.005-2.023 2.978-1.197 4.591 0.441 0.858 1.19 1.489 2.112 1.778 0.355 0.111 0.718 0.165 1.078 0.165 0.579 0 1.153-0.142 1.679-0.422l2.776-1.476 4.528-2.338 2.714-0.016-10.883 10.831c-0.001 0.001-0.002 0.001-0.003 0.002l-2.677 2.667c-0.632 0.629-0.98 1.465-0.98 2.355 0 0.89 0.348 1.727 0.98 2.357 0.65 0.646 1.504 0.971 2.358 0.971 0.856 0 1.709-0.324 2.361-0.971l2.628-2.618 3.482-2.6 1.802 1.794-3.523 3.508c-0.001 0.001-0.002 0.001-0.003 0.002l-2.677 2.667c-0.633 0.629-0.98 1.465-0.98 2.355 0 0.89 0.348 1.727 0.98 2.357 0.65 0.646 1.505 0.971 2.36 0.971s1.71-0.324 2.361-0.971l6.963-6.933c0.001-0.001 0.001-0.002 0.002-0.003l2.019-2-0.008-0.008c0.013-0.013 0.031-0.017 0.044-0.031l10.332-11.316 6.942 0.988c0.050 0.008 0.1 0.011 0.15 0.011 0.129 0 0.254-0.031 0.374-0.077 0.035-0.013 0.066-0.030 0.099-0.047 0.038-0.019 0.079-0.030 0.115-0.054l6.427-4.267c0.023-0.016 0.036-0.042 0.059-0.059 0.026-0.020 0.058-0.029 0.081-0.051l2.543-2.382c1.323-1.24 1.506-3.271 0.424-4.723zM4.261 35.54c-0.347 0.186-0.74 0.223-1.117 0.103-0.373-0.116-0.676-0.371-0.853-0.716-0.322-0.627-0.135-1.391 0.429-1.804l2.627-1.264 0.898 2.625-1.984 1.055zM11.255 31.885l-3.097 1.6-0.878-2.567 4.053-2.001-0.079 2.968zM41.454 18.644c0 1.837-0.438 3.569-1.198 5.119l-8.363-3.798c-0.087-1.147-0.683-2.15-1.576-2.776l2.928-9.721c4.755 1.513 8.209 5.949 8.209 11.176zM17.876 18.644c0-6.469 5.289-11.733 11.789-11.733 0.506 0 1 0.043 1.49 0.104l-2.864 9.507c-0.038-0.001-0.075-0.012-0.114-0.012-2.065 0-3.745 1.675-3.745 3.733s1.68 3.733 3.745 3.733c1.389 0 2.589-0.767 3.236-1.889l7.725 3.509c-2.149 2.893-5.59 4.78-9.473 4.78-6.5 0-11.789-5.264-11.789-11.734zM29.789 20.244c0 0.882-0.723 1.6-1.612 1.6s-1.612-0.718-1.612-1.6c0-0.882 0.723-1.6 1.612-1.6s1.612 0.718 1.612 1.6zM4.93 50.293c-0.473 0.468-1.237 0.467-1.709 0.001-0.227-0.227-0.352-0.527-0.352-0.846 0-0.318 0.125-0.618 0.352-0.843l1.924-1.917 1.702 1.695-1.918 1.909zM11.357 57.759c-0.473 0.468-1.238 0.469-1.71 0.001-0.227-0.227-0.352-0.527-0.352-0.846 0-0.318 0.125-0.618 0.352-0.843l1.925-1.918 1.704 1.695-1.919 1.91zM18.321 50.822c-0.001 0.001-0.002 0.001-0.003 0.002l-3.53 3.52-1.704-1.695 3.526-3.511c0 0 0 0 0-0.001 0.001-0.001 0.002-0.001 0.003-0.002 0.080-0.080 0.13-0.176 0.179-0.271 0.014-0.028 0.041-0.051 0.052-0.080 0.033-0.082 0.038-0.171 0.051-0.257 0.006-0.049 0.028-0.095 0.028-0.145 0-0.072-0.026-0.141-0.041-0.211-0.013-0.064-0.013-0.129-0.037-0.191-0.041-0.1-0.11-0.189-0.182-0.275-0.020-0.023-0.028-0.053-0.050-0.076 0 0 0 0-0.001 0s-0.001-0.003-0.002-0.004l-3.214-3.2c-0.034-0.034-0.078-0.048-0.116-0.077-0.056-0.044-0.111-0.084-0.174-0.115-0.061-0.030-0.123-0.048-0.187-0.065-0.068-0.019-0.134-0.034-0.206-0.039-0.065-0.004-0.126 0.002-0.191 0.010-0.072 0.008-0.139 0.018-0.208 0.041-0.067 0.021-0.127 0.054-0.189 0.090-0.040 0.022-0.084 0.030-0.122 0.058l-3.547 2.648-1.802-1.794 4.798-4.772 8.721 8.577-1.855 1.838zM31.958 36.788c-0.031-0.004-0.060 0.008-0.091 0.005-0.078-0.004-0.152 0.001-0.23 0.014-0.061 0.011-0.118 0.022-0.176 0.043-0.068 0.023-0.13 0.056-0.193 0.094-0.060 0.036-0.114 0.075-0.166 0.123-0.026 0.022-0.056 0.033-0.080 0.059l-9.396 10.291-8.656-8.513 5.666-5.636c0.417-0.416 0.419-1.091 0.003-1.509-0.21-0.21-0.486-0.314-0.763-0.313v-0.001l-4.438 0.027 0.056-3.215 6.208 0.053c2.53 2.588 6.059 4.202 9.963 4.202 0.875 0 1.728-0.091 2.559-0.245 0.080 0.064 0.159 0.129 0.259 0.17l4.819 1.92 0.305 1.517 0.356 1.771-6.005-0.854zM40.041 37.145l-0.626-3.116 2.893-2.16 1.893 2.513-4.16 2.763zM47.548 31.483l-1.676 1.57-1.862-2.473 1.663-1.275c0.31-0.239 0.702-0.336 1.086-0.286 0.386 0.054 0.727 0.256 0.96 0.569 0.433 0.584 0.359 1.397-0.171 1.894z"></path>
<path fill="#212121" style="fill: var(--color2, #212121)" d="M27.204 37.088l-4.286-4.267c-0.415-0.415-1.089-0.415-1.505 0l-4.285 4.267c-0.201 0.202-0.314 0.472-0.314 0.756s0.112 0.556 0.314 0.756l4.285 4.267c0.208 0.207 0.481 0.31 0.753 0.31s0.545-0.103 0.752-0.31l4.286-4.267c0.201-0.2 0.315-0.473 0.315-0.756s-0.113-0.556-0.315-0.756zM22.166 40.606l-2.773-2.762 2.773-2.762 2.774 2.762-2.774 2.762z"></path>
<path fill="#212121" style="fill: var(--color2, #212121)" d="M34.329 10.142l-0.515 2.072c0.142 0.035 3.475 0.903 3.475 4.298h2.133c-0-4.034-3.331-5.931-5.093-6.369z"></path>
<path fill="#212121" style="fill: var(--color2, #212121)" d="M39.422 18.644h-2.133v2.133h2.133v-2.133z"></path>
</symbol>
<symbol id="icon-computer" viewBox="0 0 64 64">
<path fill="#2196f3" style="fill: var(--color1, #2196f3)" d="M29.851 29.929h2.132v9.595h-2.132v-9.595z"></path>
<path fill="#2196f3" style="fill: var(--color1, #2196f3)" d="M38.38 34.194h2.132v5.331h-2.132v-5.331z"></path>
<path fill="#2196f3" style="fill: var(--color1, #2196f3)" d="M21.322 37.392h2.132v2.132h-2.132v-2.132z"></path>
<path fill="#2196f3" style="fill: var(--color1, #2196f3)" d="M14.925 36.326h2.132v3.198h-2.132v-3.198z"></path>
<path fill="#212121" style="fill: var(--color2, #212121)" d="M3.198 56.582h51.173c1.766 0 3.198-1.432 3.198-3.198v-4.264c0-1.766-1.432-3.198-3.198-3.198h-1.066v-26.587l6.056-5.737c1.406 0.693 3.107 0.272 4.026-0.997s0.791-3.017-0.305-4.137-2.84-1.287-4.13-0.396c-1.289 0.892-1.747 2.584-1.085 4.004l-4.563 4.325v-2.46c0-1.766-1.432-3.198-3.198-3.198h-42.644c-1.766 0-3.198 1.432-3.198 3.198v31.983h-1.066c-1.766 0-3.198 1.432-3.198 3.198v4.264c0 1.766 1.432 3.198 3.198 3.198zM60.768 9.673c0.589 0 1.066 0.477 1.066 1.066s-0.477 1.066-1.066 1.066c-0.589 0-1.066-0.477-1.066-1.066s0.477-1.066 1.066-1.066zM6.397 13.938c0-0.589 0.477-1.066 1.066-1.066h42.644c0.589 0 1.066 0.477 1.066 1.066v4.477l-2.132 2.026v-4.371c0-0.589-0.477-1.066-1.066-1.066h-38.38c-0.589 0-1.066 0.477-1.066 1.066v26.653c0 0.589 0.477 1.066 1.066 1.066h38.38c0.589 0 1.066-0.477 1.066-1.066v-19.349l2.132-2.020v24.567h-44.777v-31.983zM15.992 27.797c-1.442-0.004-2.709 0.957-3.093 2.347s0.21 2.865 1.451 3.601c1.24 0.736 2.82 0.551 3.856-0.452l3.706 1.859c0.431 0.215 0.953 0.115 1.273-0.245l7.878-8.863 7.744 5.803c0.415 0.311 0.995 0.278 1.372-0.079l6.73-6.375v16.262h-36.248v-24.52h36.248v5.321l-7.543 7.143-7.809-5.854c-0.444-0.332-1.068-0.27-1.436 0.144l-7.986 8.985-2.985-1.493c0.022-0.128 0.035-0.257 0.041-0.387 0-1.766-1.432-3.198-3.198-3.198zM17.058 30.995c0 0.589-0.477 1.066-1.066 1.066s-1.066-0.477-1.066-1.066c0-0.589 0.477-1.066 1.066-1.066s1.066 0.477 1.066 1.066zM23.454 48.053h10.661v1.066c0 0.589-0.477 1.066-1.066 1.066h-8.529c-0.589 0-1.066-0.477-1.066-1.066v-1.066zM2.132 49.119c0-0.589 0.477-1.066 1.066-1.066h18.124v1.066c0 1.766 1.432 3.198 3.198 3.198h8.529c1.766 0 3.198-1.432 3.198-3.198v-1.066h18.124c0.589 0 1.066 0.477 1.066 1.066v4.264c0 0.589-0.477 1.066-1.066 1.066h-51.173c-0.589 0-1.066-0.477-1.066-1.066v-4.264z"></path>
</symbol>
<symbol id="icon-facebook" viewBox="0 0 35 64">
<path d="M26.659 10.627h5.843v-10.176c-1.008-0.139-4.475-0.451-8.512-0.451-8.424 0-14.195 5.299-14.195 15.037v8.963h-9.296v11.376h9.296v28.624h11.397v-28.621h8.92l1.416-11.376h-10.339v-7.837c0.003-3.288 0.888-5.539 5.469-5.539z"></path>
</symbol>
<symbol id="icon-facebook-white" viewBox="0 0 64 64">
<path d="M42.659 10.627h5.843v-10.176c-1.008-0.139-4.475-0.451-8.512-0.451-8.424 0-14.195 5.299-14.195 15.037v8.963h-9.296v11.376h9.296v28.624h11.398v-28.621h8.92l1.416-11.376h-10.339v-7.837c0.003-3.288 0.888-5.539 5.469-5.539z"></path>
</symbol>
<symbol id="icon-instagram" viewBox="0 0 64 64">
<path d="M63.937 18.816c-0.15-3.401-0.7-5.738-1.487-7.764-0.813-2.15-2.063-4.075-3.701-5.676-1.6-1.625-3.538-2.888-5.664-3.688-2.037-0.788-4.363-1.338-7.764-1.488-3.426-0.163-4.514-0.2-13.203-0.2s-9.777 0.038-13.19 0.188c-3.401 0.15-5.738 0.7-7.764 1.488-2.151 0.813-4.076 2.063-5.676 3.701-1.625 1.6-2.888 3.538-3.688 5.664-0.788 2.038-1.338 4.363-1.488 7.764-0.163 3.426-0.2 4.514-0.2 13.203s0.038 9.777 0.188 13.19c0.15 3.4 0.7 5.738 1.488 7.764 0.813 2.15 2.075 4.075 3.7 5.676 1.6 1.625 3.538 2.888 5.664 3.688 2.038 0.788 4.363 1.338 7.764 1.487 3.413 0.15 4.501 0.188 13.19 0.188s9.777-0.037 13.19-0.188c3.401-0.15 5.738-0.7 7.764-1.487 4.301-1.663 7.702-5.064 9.365-9.364 0.787-2.038 1.338-4.364 1.488-7.764 0.15-3.413 0.188-4.501 0.188-13.19s-0.013-9.777-0.163-13.19zM58.174 44.946c-0.138 3.126-0.663 4.813-1.1 5.939-1.075 2.788-3.288 5.001-6.077 6.077-1.125 0.438-2.825 0.963-5.939 1.1-3.376 0.15-4.388 0.188-12.927 0.188s-9.564-0.037-12.928-0.188c-3.126-0.137-4.813-0.662-5.939-1.1-1.387-0.513-2.65-1.325-3.675-2.388-1.063-1.038-1.875-2.288-2.388-3.675-0.438-1.125-0.963-2.826-1.1-5.939-0.15-3.376-0.188-4.389-0.188-12.928s0.037-9.564 0.188-12.927c0.137-3.126 0.662-4.813 1.1-5.939 0.513-1.388 1.325-2.65 2.401-3.676 1.037-1.063 2.288-1.875 3.675-2.388 1.125-0.438 2.826-0.963 5.939-1.1 3.376-0.15 4.389-0.188 12.927-0.188 8.552 0 9.564 0.038 12.928 0.188 3.126 0.138 4.813 0.663 5.939 1.1 1.387 0.512 2.65 1.325 3.675 2.388 1.062 1.038 1.875 2.288 2.388 3.676 0.437 1.125 0.963 2.825 1.1 5.939 0.15 3.376 0.188 4.388 0.188 12.927s-0.037 9.54-0.188 12.915z"></path>
<path d="M32.119 15.565c-9.076 0-16.441 7.364-16.441 16.441s7.364 16.441 16.441 16.441c9.077 0 16.441-7.364 16.441-16.441s-7.364-16.441-16.441-16.441zM32.119 42.671c-5.888 0-10.665-4.776-10.665-10.665s4.776-10.665 10.665-10.665c5.889 0 10.665 4.776 10.665 10.665s-4.776 10.665-10.665 10.665z"></path>
<path d="M53.048 14.915c0 2.12-1.719 3.838-3.839 3.838s-3.838-1.719-3.838-3.838c0-2.12 1.718-3.838 3.838-3.838s3.839 1.718 3.839 3.838z"></path>
</symbol>
<symbol id="icon-instagram-white" viewBox="0 0 64 64">
<path d="M63.937 18.816c-0.15-3.401-0.7-5.738-1.487-7.764-0.813-2.15-2.063-4.075-3.701-5.676-1.6-1.625-3.538-2.888-5.664-3.688-2.037-0.788-4.363-1.338-7.764-1.488-3.426-0.163-4.514-0.2-13.203-0.2s-9.777 0.038-13.19 0.188c-3.401 0.15-5.738 0.7-7.764 1.488-2.151 0.813-4.076 2.063-5.676 3.701-1.625 1.6-2.888 3.538-3.688 5.664-0.788 2.038-1.338 4.363-1.488 7.764-0.163 3.426-0.2 4.514-0.2 13.203s0.038 9.777 0.188 13.19c0.15 3.4 0.7 5.738 1.488 7.764 0.813 2.15 2.075 4.075 3.7 5.676 1.6 1.625 3.538 2.888 5.664 3.688 2.038 0.788 4.363 1.338 7.764 1.487 3.413 0.15 4.501 0.188 13.19 0.188s9.777-0.037 13.19-0.188c3.401-0.15 5.738-0.7 7.764-1.487 4.301-1.663 7.702-5.064 9.365-9.364 0.787-2.038 1.338-4.364 1.488-7.764 0.15-3.413 0.188-4.501 0.188-13.19s-0.013-9.777-0.163-13.19zM58.174 44.946c-0.138 3.126-0.663 4.813-1.1 5.939-1.075 2.788-3.288 5.001-6.077 6.077-1.125 0.438-2.825 0.963-5.939 1.1-3.376 0.15-4.388 0.188-12.927 0.188s-9.564-0.037-12.928-0.188c-3.126-0.137-4.813-0.662-5.939-1.1-1.387-0.513-2.65-1.325-3.675-2.388-1.063-1.038-1.875-2.288-2.388-3.675-0.438-1.125-0.963-2.826-1.1-5.939-0.15-3.376-0.188-4.389-0.188-12.928s0.037-9.564 0.188-12.927c0.137-3.126 0.662-4.813 1.1-5.939 0.513-1.388 1.325-2.65 2.401-3.676 1.037-1.063 2.288-1.875 3.675-2.388 1.125-0.438 2.826-0.963 5.939-1.1 3.376-0.15 4.389-0.188 12.927-0.188 8.552 0 9.564 0.038 12.928 0.188 3.126 0.138 4.813 0.663 5.939 1.1 1.387 0.512 2.65 1.325 3.675 2.388 1.062 1.038 1.875 2.288 2.388 3.676 0.437 1.125 0.963 2.825 1.1 5.939 0.15 3.376 0.188 4.388 0.188 12.927s-0.037 9.54-0.188 12.915z"></path>
<path d="M32.119 15.565c-9.076 0-16.441 7.364-16.441 16.441s7.364 16.441 16.441 16.441c9.077 0 16.441-7.364 16.441-16.441s-7.364-16.441-16.441-16.441zM32.119 42.671c-5.888 0-10.665-4.776-10.665-10.665s4.776-10.665 10.665-10.665c5.889 0 10.665 4.776 10.665 10.665s-4.776 10.665-10.665 10.665z"></path>
<path d="M53.048 14.915c0 2.12-1.719 3.838-3.839 3.838s-3.838-1.719-3.838-3.838c0-2.12 1.718-3.838 3.838-3.838s3.839 1.718 3.839 3.838z"></path>
</symbol>
<symbol id="icon-linkedin" viewBox="0 0 64 64">
<path d="M63.984 64v-0.003h0.016v-23.472c0-11.483-2.472-20.328-15.896-20.328-6.453 0-10.784 3.541-12.552 6.899h-0.187v-5.827h-12.728v42.728h13.253v-21.157c0-5.571 1.056-10.957 7.955-10.957 6.797 0 6.899 6.357 6.899 11.315v20.803h13.24z"></path>
<path d="M1.056 21.272h13.269v42.728h-13.269v-42.728z"></path>
<path d="M7.685 0c-4.243 0-7.685 3.443-7.685 7.685s3.443 7.757 7.685 7.757c4.243 0 7.685-3.515 7.685-7.757-0.003-4.243-3.445-7.685-7.685-7.685v0z"></path>
</symbol>
<symbol id="icon-linkedin-white" viewBox="0 0 64 64">
<path d="M63.984 64v-0.003h0.016v-23.472c0-11.483-2.472-20.328-15.896-20.328-6.453 0-10.784 3.541-12.552 6.899h-0.187v-5.827h-12.728v42.728h13.253v-21.157c0-5.571 1.056-10.957 7.955-10.957 6.797 0 6.899 6.357 6.899 11.315v20.803h13.24z"></path>
<path d="M1.056 21.272h13.269v42.728h-13.269v-42.728z"></path>
<path d="M7.685 0c-4.243 0-7.685 3.443-7.685 7.685s3.443 7.757 7.685 7.757c4.243 0 7.685-3.515 7.685-7.757-0.003-4.243-3.445-7.685-7.685-7.685v0z"></path>
</symbol>
<symbol id="icon-logo-company-1" viewBox="0 0 56 64">
<path d="M8.17 0l9.543 9.034-17.713-0.010v43.829h46.298v-16.758l9.532 9.024v-45.118h-47.66zM45.879 35.034l-27.057-25.614h27.057v25.614zM37.478 46.442h-30.152v-29.478h2.131v27.482h28.021v1.996zM14.446 58.688l-1.114 2.294-1.114-2.294h-0.934l1.626 3.059v1.782h0.844v-1.782l1.622-3.059h-0.931zM15.846 63.529l0.392-1.127h1.875l0.396 1.127h0.878l-1.832-4.84h-0.755l-1.829 4.84h0.874zM17.176 59.715l0.701 2.008h-1.403l0.702-2.008zM21.61 61.607c-0.122 0.186-0.183 0.391-0.183 0.615 0 0.408 0.143 0.739 0.429 0.994 0.288 0.253 0.671 0.379 1.15 0.379s0.891-0.13 1.237-0.389l0.273 0.322h0.938l-0.712-0.841c0.279-0.381 0.419-0.87 0.419-1.466h-0.701c0 0.326-0.068 0.622-0.203 0.888l-0.934-1.104 0.329-0.239c0.233-0.168 0.4-0.337 0.502-0.505 0.102-0.171 0.153-0.357 0.153-0.558 0-0.306-0.113-0.562-0.339-0.768-0.224-0.208-0.512-0.313-0.864-0.313-0.39 0-0.7 0.111-0.931 0.332-0.231 0.219-0.346 0.519-0.346 0.898 0 0.155 0.037 0.316 0.11 0.482 0.075 0.166 0.207 0.368 0.396 0.605-0.359 0.257-0.6 0.48-0.721 0.668zM23.794 62.678c-0.237 0.182-0.492 0.273-0.765 0.273-0.242 0-0.434-0.070-0.578-0.209s-0.216-0.321-0.216-0.545c0-0.259 0.133-0.49 0.399-0.691l0.103-0.073 1.057 1.247zM22.927 60.533c-0.228-0.281-0.342-0.515-0.342-0.701 0-0.162 0.047-0.296 0.14-0.402s0.218-0.16 0.376-0.16c0.146 0 0.267 0.045 0.362 0.136 0.095 0.089 0.143 0.196 0.143 0.322 0 0.191-0.069 0.347-0.206 0.469l-0.103 0.083-0.369 0.253zM30.806 63.163c0.332-0.29 0.523-0.694 0.572-1.21h-0.838c-0.044 0.346-0.149 0.593-0.316 0.741s-0.415 0.223-0.745 0.223c-0.361 0-0.636-0.137-0.824-0.412-0.186-0.275-0.279-0.674-0.279-1.197v-0.429c0.004-0.516 0.104-0.908 0.299-1.173 0.197-0.268 0.479-0.402 0.844-0.402 0.315 0 0.553 0.078 0.715 0.233 0.164 0.153 0.266 0.403 0.306 0.751h0.838c-0.053-0.53-0.243-0.94-0.569-1.23s-0.756-0.435-1.29-0.435c-0.397 0-0.747 0.094-1.051 0.283-0.301 0.188-0.533 0.457-0.695 0.804s-0.243 0.75-0.243 1.207v0.452c0.007 0.445 0.090 0.837 0.249 1.173s0.386 0.597 0.678 0.781c0.295 0.182 0.635 0.273 1.021 0.273 0.552 0 0.994-0.144 1.326-0.432zM35.749 62.485c0.164-0.359 0.246-0.776 0.246-1.25v-0.269c-0.002-0.472-0.086-0.885-0.253-1.24-0.166-0.357-0.402-0.629-0.708-0.818-0.304-0.191-0.653-0.286-1.047-0.286s-0.745 0.096-1.051 0.289c-0.304 0.191-0.54 0.467-0.708 0.828-0.166 0.361-0.249 0.778-0.249 1.25v0.273c0.002 0.463 0.086 0.872 0.253 1.227 0.168 0.355 0.406 0.628 0.712 0.821 0.308 0.191 0.658 0.286 1.051 0.286 0.397 0 0.747-0.095 1.050-0.286 0.306-0.193 0.541-0.468 0.705-0.825zM34.848 59.749c0.204 0.286 0.306 0.697 0.306 1.233v0.253c0 0.545-0.101 0.96-0.303 1.243-0.199 0.284-0.485 0.426-0.858 0.426-0.368 0-0.656-0.145-0.864-0.435-0.206-0.29-0.309-0.701-0.309-1.233v-0.279c0.005-0.521 0.109-0.923 0.313-1.207 0.206-0.286 0.491-0.429 0.854-0.429 0.372 0 0.659 0.143 0.861 0.429z"></path>
</symbol>
<symbol id="icon-logo-company-2" viewBox="0 0 49 64">
<path d="M21.063 3.612h-0.168c-0.258-0.016-0.517-0.022-0.775-0.028v0h-0.56c-0.489 0-0.987 0.013-1.482 0.038-0.037-0.003-0.075-0.003-0.112 0-4.485 0.254-8.88 1.375-12.943 3.302l-0.532 0.257v27.251l1.245-0.422c1.093-0.376 2.257-0.714 3.462-1.027 3.257-0.836 6.602-1.281 9.963-1.324v3.58c-0.445 0.003-0.878 0.016-1.311 0.038h-0.103c-2.587 0.142-5.154 0.536-7.665 1.177-3.18 0.796-6.249 1.992-9.132 3.559v-34.95c2.995-1.747 6.22-3.058 9.58-3.897 2.95-0.762 5.983-1.153 9.029-1.164h0.526c0.629 0.016 1.242 0.044 1.818 0.088 1.518 0.107 3.023 0.346 4.499 0.717v3.524c-1.433-0.334-2.891-0.554-4.359-0.657-0.030-0.002-0.060-0.005-0.089-0.008-0.304-0.026-0.608-0.052-0.891-0.052zM27.265 7.214c0.781 0.059 1.591 0.088 2.41 0.088 3.202-0.012 6.391-0.421 9.493-1.218 3.179-0.799 6.246-1.996 9.129-3.562v34.327c-2.996 1.746-6.222 3.057-9.583 3.897-2.951 0.759-5.983 1.149-9.029 1.161-2.308 0.019-4.609-0.253-6.85-0.807v-34.549c0.529 0.122 1.074 0.235 1.628 0.329 0.909 0.153 1.868 0.266 2.802 0.335zM44.735 7.48l-1.245 0.419c-1.146 0.385-2.301 0.729-3.462 1.036-3.381 0.869-6.856 1.315-10.346 1.327-0.813 0-1.56-0.022-2.282-0.069l-0.993-0.066v28.033l0.853 0.075c0.791 0.069 1.607 0.103 2.429 0.103 2.749-0.012 5.486-0.366 8.148-1.055 2.192-0.55 4.325-1.316 6.367-2.288l0.532-0.257v-27.26z"></path>
<path d="M3.369 51.954c-0.179-0.186-0.395-0.332-0.634-0.428s-0.495-0.142-0.752-0.132c-0.274-0.004-0.546 0.047-0.8 0.15-0.233 0.093-0.445 0.232-0.623 0.41-0.176 0.178-0.313 0.391-0.402 0.626-0.098 0.246-0.146 0.508-0.143 0.773v4.67c-0.011 0.329 0.052 0.656 0.184 0.958 0.11 0.239 0.269 0.453 0.467 0.626 0.187 0.157 0.406 0.27 0.641 0.332 0.227 0.064 0.462 0.096 0.697 0.097 0.26 0.003 0.517-0.053 0.753-0.163 0.233-0.102 0.445-0.249 0.623-0.432 0.173-0.181 0.312-0.394 0.408-0.626 0.1-0.235 0.151-0.489 0.149-0.745v-0.523h-1.22v0.416c0.004 0.142-0.021 0.284-0.072 0.416-0.040 0.099-0.1 0.189-0.178 0.263-0.076 0.061-0.162 0.107-0.255 0.135-0.082 0.027-0.168 0.042-0.255 0.044-0.109 0.013-0.219-0.004-0.32-0.048s-0.188-0.114-0.253-0.203c-0.115-0.188-0.171-0.406-0.162-0.626v-4.354c-0.008-0.241 0.044-0.481 0.149-0.698 0.063-0.099 0.153-0.177 0.259-0.227s0.223-0.069 0.339-0.055c0.105-0.004 0.21 0.018 0.305 0.064s0.177 0.114 0.24 0.199c0.137 0.179 0.208 0.4 0.202 0.626v0.404h1.208v-0.476c0.002-0.279-0.048-0.557-0.149-0.817-0.090-0.245-0.229-0.468-0.408-0.657z"></path>
<path d="M10.62 51.9c-0.389-0.329-0.88-0.51-1.389-0.513-0.249 0.001-0.495 0.046-0.729 0.131-0.237 0.085-0.456 0.215-0.644 0.382-0.202 0.182-0.364 0.405-0.473 0.654-0.123 0.285-0.183 0.594-0.177 0.904v4.479c-0.008 0.315 0.052 0.628 0.177 0.917 0.11 0.241 0.272 0.454 0.473 0.626 0.187 0.173 0.406 0.307 0.644 0.394 0.233 0.086 0.48 0.13 0.729 0.131 0.249-0.001 0.495-0.045 0.729-0.131 0.243-0.088 0.467-0.222 0.66-0.394 0.195-0.175 0.352-0.388 0.461-0.626 0.125-0.289 0.186-0.602 0.177-0.917v-4.479c0.006-0.311-0.055-0.619-0.177-0.904-0.109-0.247-0.265-0.469-0.461-0.654zM10.050 57.938c0.010 0.119-0.006 0.239-0.048 0.352s-0.109 0.213-0.195 0.296c-0.161 0.135-0.364 0.209-0.574 0.209s-0.413-0.074-0.574-0.209c-0.086-0.083-0.153-0.184-0.195-0.296s-0.059-0.232-0.048-0.352v-4.479c-0.010-0.119 0.006-0.239 0.048-0.352s0.109-0.213 0.195-0.296c0.161-0.135 0.364-0.209 0.574-0.209s0.413 0.074 0.574 0.209c0.086 0.083 0.153 0.184 0.195 0.296s0.059 0.232 0.048 0.352v4.479z"></path>
<path d="M20.144 59.938v-8.478h-1.174l-1.541 4.488h-0.022l-1.554-4.488h-1.161v8.478h1.211v-5.158h0.022l1.186 3.646h0.604l1.196-3.646h0.022v5.158h1.211z"></path>
<path d="M27.025 52.054c-0.187-0.209-0.422-0.368-0.685-0.463-0.283-0.092-0.58-0.137-0.878-0.131h-1.799v8.478h1.208v-3.311h0.623c0.377 0.017 0.752-0.063 1.090-0.232 0.275-0.153 0.504-0.376 0.663-0.648 0.14-0.225 0.234-0.477 0.277-0.739 0.047-0.319 0.069-0.642 0.065-0.964 0.012-0.407-0.028-0.814-0.118-1.211-0.081-0.293-0.234-0.562-0.445-0.779zM26.403 54.639c-0.005 0.154-0.043 0.304-0.112 0.441-0.069 0.13-0.178 0.235-0.311 0.297-0.179 0.080-0.374 0.117-0.57 0.106h-0.551v-2.882h0.623c0.188-0.009 0.374 0.027 0.545 0.106 0.125 0.072 0.224 0.181 0.283 0.313 0.066 0.149 0.102 0.31 0.106 0.473 0 0.178 0 0.366 0 0.563s0.012 0.401 0 0.582h-0.012z"></path>
<path d="M32.748 51.459h-0.99l-1.868 8.478h1.208l0.355-1.822h1.647l0.355 1.822h1.208l-1.915-8.478zM31.633 56.961l0.595-3.073h0.022l0.592 3.073h-1.208z"></path>
<path d="M40.553 56.567h-0.022l-1.825-5.108h-1.161v8.478h1.208v-5.098h0.025l1.846 5.098h1.136v-8.478h-1.208v5.108z"></path>
<path d="M47.935 51.459l-0.971 3.371h-0.025l-0.971-3.371h-1.28l1.659 4.895v3.584h1.208v-3.584l1.659-4.895h-1.28z"></path>
<path d="M0 62.332h0.582v1.634h0.395v-1.634h0.579v-0.335h-1.557v0.335z"></path>
<path d="M4.894 61.997l-0.763 1.969h0.42l0.162-0.447h0.785l0.168 0.447h0.43l-0.782-1.969h-0.42zM4.832 63.186l0.268-0.729 0.268 0.729h-0.535z"></path>
<path d="M9.733 63.239h0.455v0.254c-0.133 0.106-0.297 0.165-0.467 0.166-0.079 0.004-0.159-0.010-0.231-0.043s-0.136-0.082-0.186-0.145c-0.104-0.15-0.156-0.331-0.146-0.513 0-0.438 0.19-0.657 0.567-0.657 0.099-0.010 0.199 0.016 0.28 0.074s0.14 0.142 0.165 0.239l0.389-0.075c-0.084-0.385-0.361-0.579-0.834-0.579-0.253-0.007-0.499 0.084-0.688 0.254-0.099 0.098-0.176 0.216-0.225 0.347s-0.069 0.271-0.059 0.41c-0.011 0.269 0.079 0.533 0.252 0.739 0.096 0.099 0.213 0.177 0.342 0.226s0.267 0.071 0.405 0.062c0.308 0.009 0.607-0.104 0.834-0.313v-0.776h-0.853v0.332z"></path>
<path d="M14.674 61.997h-0.399v1.969h1.379v-0.335h-0.981v-1.634z"></path>
<path d="M18.852 61.997h-0.398v1.969h0.398v-1.969z"></path>
<path d="M22.937 63.311l-0.806-1.315h-0.386v1.969h0.37v-1.286l0.791 1.286h0.395v-1.969h-0.364v1.315z"></path>
<path d="M26.63 63.098h0.981v-0.335h-0.981v-0.432h1.055v-0.335h-1.454v1.969h1.494v-0.335h-1.096v-0.532z"></path>
<path d="M35.584 62.773h-0.775v-0.776h-0.395v1.969h0.395v-0.861h0.775v0.861h0.395v-1.969h-0.395v0.776z"></path>
<path d="M39.299 63.098h0.984v-0.335h-0.984v-0.432h1.059v-0.335h-1.454v1.969h1.491v-0.335h-1.096v-0.532z"></path>
<path d="M44.336 63.099c0.342-0.053 0.517-0.235 0.517-0.548 0.010-0.084-0.003-0.169-0.037-0.246s-0.088-0.144-0.156-0.193c-0.178-0.090-0.377-0.13-0.576-0.116h-0.834v1.969h0.395v-0.823h0.078c0.084-0.005 0.169 0.010 0.246 0.044 0.058 0.036 0.106 0.085 0.14 0.144l0.43 0.626h0.473l-0.24-0.385c-0.106-0.19-0.255-0.352-0.436-0.473zM43.938 62.826h-0.293v-0.495h0.311c0.136-0.011 0.272 0.005 0.402 0.047 0.029 0.026 0.051 0.057 0.066 0.093s0.022 0.074 0.020 0.112c-0.002 0.038-0.012 0.076-0.030 0.11s-0.044 0.063-0.075 0.086c-0.13 0.040-0.266 0.056-0.402 0.047z"></path>
<path d="M48.135 63.098h0.981v-0.335h-0.981v-0.432h1.059v-0.335h-1.457v1.969h1.494v-0.335h-1.096v-0.532z"></path>
</symbol>
<symbol id="icon-logo-company-3" viewBox="0 0 69 64">
<path d="M11.286 62.631c0.024 0.001 0.048 0.005 0.070 0.014s0.042 0.021 0.059 0.037l0.332 0.318c-0.258 0.257-0.577 0.463-0.935 0.603-0.419 0.153-0.871 0.227-1.325 0.217-0.427 0.008-0.851-0.061-1.246-0.202-0.356-0.13-0.677-0.324-0.939-0.57-0.268-0.256-0.474-0.555-0.607-0.881-0.145-0.363-0.217-0.746-0.212-1.13-0.006-0.387 0.072-0.771 0.229-1.134 0.145-0.328 0.364-0.627 0.644-0.881 0.284-0.249 0.623-0.444 0.997-0.574 0.409-0.138 0.845-0.206 1.284-0.202 0.408-0.009 0.813 0.054 1.192 0.184 0.329 0.124 0.631 0.296 0.893 0.509l-0.278 0.339c-0.019 0.024-0.043 0.045-0.071 0.061-0.033 0.020-0.073 0.029-0.112 0.025-0.043-0.003-0.085-0.015-0.12-0.036l-0.15-0.090-0.208-0.115c-0.090-0.043-0.183-0.080-0.278-0.112-0.123-0.038-0.25-0.069-0.378-0.090-0.163-0.026-0.329-0.038-0.494-0.036-0.316-0.004-0.63 0.048-0.922 0.152-0.273 0.096-0.519 0.241-0.723 0.426-0.207 0.197-0.367 0.428-0.47 0.679-0.117 0.287-0.175 0.59-0.17 0.895-0.005 0.31 0.053 0.618 0.17 0.91 0.101 0.249 0.258 0.478 0.461 0.675 0.19 0.183 0.426 0.327 0.69 0.419 0.271 0.098 0.562 0.147 0.856 0.144 0.17 0.002 0.339-0.007 0.507-0.029 0.274-0.029 0.537-0.112 0.769-0.242 0.116-0.067 0.226-0.141 0.328-0.224 0.043-0.035 0.099-0.056 0.158-0.058z"></path>
<path  d="M20.883 61.034c0.005 0.383-0.071 0.764-0.224 1.123-0.135 0.326-0.349 0.623-0.626 0.872s-0.612 0.444-0.982 0.572c-0.813 0.27-1.713 0.27-2.526 0-0.368-0.13-0.7-0.326-0.976-0.574-0.277-0.253-0.492-0.553-0.632-0.881-0.299-0.727-0.299-1.522 0-2.249 0.142-0.328 0.356-0.629 0.632-0.885 0.278-0.24 0.611-0.428 0.976-0.552 0.812-0.274 1.713-0.274 2.526 0 0.369 0.13 0.703 0.326 0.98 0.574 0.273 0.251 0.487 0.547 0.627 0.87 0.154 0.361 0.23 0.745 0.224 1.13zM20.010 61.034c0.007-0.306-0.047-0.611-0.158-0.903-0.093-0.249-0.245-0.479-0.445-0.675-0.195-0.185-0.435-0.331-0.702-0.426-0.591-0.197-1.245-0.197-1.836 0-0.268 0.095-0.507 0.24-0.702 0.426-0.203 0.195-0.356 0.425-0.449 0.675-0.211 0.588-0.211 1.217 0 1.805 0.094 0.25 0.247 0.48 0.449 0.675 0.195 0.184 0.435 0.329 0.702 0.422 0.592 0.192 1.244 0.192 1.836 0 0.267-0.094 0.507-0.238 0.702-0.422 0.199-0.197 0.351-0.426 0.445-0.675 0.111-0.291 0.165-0.596 0.158-0.903z"></path>
<path  d="M27.431 61.98l0.087 0.202c0.033-0.072 0.062-0.137 0.096-0.202 0.032-0.068 0.068-0.134 0.108-0.199l2.123-3.353c0.042-0.058 0.079-0.094 0.121-0.105 0.057-0.015 0.116-0.021 0.174-0.018h0.627v5.454h-0.744v-4.010c0-0.051 0-0.108 0-0.17-0.004-0.063-0.004-0.125 0-0.188l-2.135 3.4c-0.027 0.051-0.071 0.094-0.125 0.124s-0.118 0.046-0.182 0.046h-0.121c-0.065 0.001-0.128-0.015-0.183-0.045s-0.098-0.073-0.125-0.125l-2.198-3.422c0 0.065 0 0.13 0 0.195s0 0.123 0 0.173v4.010h-0.719v-5.443h0.627c0.059-0.003 0.118 0.003 0.174 0.018 0.052 0.022 0.093 0.059 0.116 0.105l2.169 3.357c0.043 0.062 0.079 0.127 0.108 0.195z"></path>
<path  d="M35.42 61.71v2.043h-0.831v-5.447h1.853c0.35-0.006 0.699 0.034 1.035 0.119 0.269 0.066 0.518 0.182 0.731 0.339 0.185 0.148 0.327 0.33 0.416 0.534 0.098 0.222 0.146 0.459 0.141 0.697 0.004 0.239-0.049 0.476-0.154 0.697-0.1 0.209-0.253 0.395-0.449 0.545-0.213 0.164-0.464 0.287-0.735 0.361-0.324 0.090-0.662 0.133-1.001 0.126l-1.005-0.014zM35.42 61.125h1.005c0.218 0.003 0.436-0.025 0.644-0.083 0.172-0.050 0.33-0.13 0.465-0.235 0.125-0.1 0.222-0.223 0.282-0.361 0.068-0.145 0.102-0.301 0.1-0.458 0.010-0.151-0.019-0.303-0.083-0.444s-0.164-0.268-0.291-0.372c-0.317-0.215-0.716-0.32-1.118-0.292h-1.005v2.245z"></path>
<path  d="M46.587 63.76h-0.656c-0.066 0.002-0.13-0.016-0.183-0.051-0.047-0.034-0.084-0.077-0.108-0.126l-0.565-1.318h-2.838l-0.586 1.318c-0.022 0.048-0.057 0.090-0.104 0.123-0.053 0.037-0.119 0.056-0.187 0.054h-0.656l2.493-5.455h0.864l2.526 5.455zM42.474 61.735h2.343l-0.989-2.22c-0.076-0.167-0.138-0.338-0.187-0.513l-0.096 0.285c-0.029 0.087-0.062 0.166-0.091 0.231l-0.981 2.217z"></path>
<path  d="M50.177 58.331c0.050 0.024 0.092 0.057 0.125 0.097l3.635 4.112c0-0.065 0-0.13 0-0.191s0-0.123 0-0.18v-3.863h0.744v5.455h-0.415c-0.059 0.002-0.118-0.010-0.17-0.032-0.051-0.026-0.096-0.060-0.133-0.101l-3.631-4.108c0.004 0.063 0.004 0.125 0 0.188 0 0.061 0 0.115 0 0.166v3.888h-0.744v-5.455h0.44c0.051-0.001 0.102 0.007 0.15 0.025z"></path>
<path  d="M60.805 61.591v2.166h-0.831v-2.166l-2.297-3.285h0.744c0.064-0.003 0.127 0.013 0.179 0.047 0.045 0.035 0.083 0.077 0.112 0.123l1.437 2.119c0.058 0.090 0.108 0.173 0.15 0.253s0.075 0.155 0.104 0.231l0.108-0.235c0.040-0.086 0.088-0.169 0.141-0.249l1.417-2.133c0.030-0.042 0.066-0.081 0.108-0.115 0.049-0.037 0.113-0.057 0.179-0.054h0.752l-2.302 3.299z"></path>
<path  d="M27.019 49.152c0.361 0.040 0.727 0.072 1.097 0.101 5.606-2.179 10.348-5.745 13.634-10.253s4.97-9.757 4.841-15.091l-6.178-5.368c1.256 5.68 0.669 11.551-1.697 16.957s-6.416 10.134-11.697 13.654z"></path>
<path  d="M24.813 48.903l0.166 0.029c5.644-3.508 9.947-8.406 12.353-14.061s2.803-11.807 1.142-17.661l-8.8-7.645c3.559 6.284 4.992 13.317 4.131 20.281s-3.979 13.572-8.992 19.057z"></path>
<path  d="M54.656 30.212c-1.495 5.861-5.126 11.148-10.353 15.074-1.527 1.153-3.173 2.18-4.919 3.068 4.257-1.087 8.169-3.009 11.436-5.617s5.8-5.834 7.405-9.428l-3.569-3.097z"></path>
<path  d="M53.256 29.349l-5.081-4.415c-0.097 5.033-1.744 9.952-4.77 14.245s-7.319 7.804-12.435 10.167h0.025c1.14-0 2.279-0.059 3.411-0.177 4.781-1.695 9.004-4.393 12.293-7.851s5.541-7.571 6.556-11.97z"></path>
<path  d="M25.549 6.34l-6.062-5.274c-5.419 1.819-10.079 5.018-13.371 9.177s-5.062 9.084-5.079 14.132v0c0.020 5.577 2.181 10.989 6.14 15.38s9.49 7.508 15.718 8.86c5.559-5.885 8.815-13.157 9.292-20.759s-1.847-15.139-6.637-21.515z"></path>
<path  d="M67.261 28.537c-0.022-6.617-3.057-12.958-8.443-17.637s-12.683-7.316-20.299-7.335c-3.519-0.003-7.009 0.561-10.291 1.664l37.113 32.245c1.271-2.85 1.921-5.881 1.919-8.938z"></path>
</symbol>
<symbol id="icon-logo-company-4" viewBox="0 0 130 64">
<path d="M20.032 19.966h-0.004c-3.654 0-6.616 2.633-6.616 5.88v0.004c0 3.247 2.962 5.88 6.616 5.88h0.004c3.654 0 6.616-2.633 6.616-5.88v-0.004c0-3.247-2.962-5.88-6.616-5.88z"></path>
<path d="M68.869 18.087c-0.010-4.511-2.031-8.834-5.619-12.023s-8.453-4.986-13.528-4.997v0c-5.077 0.008-9.943 1.804-13.533 4.994s-5.612 7.514-5.622 12.026v24.873c0 0 38.299-3.791 38.303-24.869v-0.004z"></path>
<path d="M0 51.123c0.009 3.138 1.416 6.146 3.913 8.366s5.88 3.471 9.412 3.48c3.531-0.009 6.914-1.26 9.41-3.479s3.904-5.225 3.914-8.363v-17.307c0 0-26.649 2.64-26.649 17.303zM13.324 54.224c-0.69 0-1.365-0.182-1.938-0.523s-1.021-0.825-1.285-1.392c-0.264-0.567-0.333-1.19-0.199-1.792s0.467-1.154 0.955-1.588 1.11-0.729 1.787-0.849c0.677-0.12 1.378-0.058 2.016 0.176s1.183 0.632 1.566 1.142c0.383 0.51 0.588 1.109 0.588 1.723 0.002 0.408-0.087 0.813-0.262 1.19s-0.431 0.721-0.755 1.010c-0.324 0.289-0.71 0.519-1.134 0.675s-0.879 0.237-1.338 0.237v-0.012z"></path>
<path d="M40.256 52.516h-2.571v2.656h-1.339v-6.5h4.232v1.085h-2.893v1.679h2.571v1.080zM46.693 52.070c0 0.64-0.113 1.201-0.339 1.683s-0.551 0.854-0.973 1.116c-0.419 0.262-0.902 0.393-1.446 0.393-0.539 0-1.019-0.13-1.442-0.388s-0.75-0.628-0.982-1.107c-0.232-0.482-0.35-1.036-0.353-1.661v-0.321c0-0.64 0.115-1.202 0.344-1.687 0.232-0.488 0.558-0.862 0.978-1.121 0.423-0.262 0.905-0.393 1.447-0.393s1.022 0.131 1.442 0.393c0.423 0.259 0.748 0.632 0.978 1.121 0.232 0.485 0.348 1.046 0.348 1.683v0.29zM45.336 51.775c0-0.681-0.122-1.199-0.366-1.553s-0.592-0.531-1.045-0.531c-0.45 0-0.796 0.176-1.040 0.527-0.244 0.348-0.368 0.86-0.37 1.536v0.317c0 0.664 0.122 1.178 0.366 1.545s0.595 0.549 1.054 0.549c0.449 0 0.795-0.176 1.036-0.527 0.241-0.354 0.363-0.869 0.366-1.545v-0.317zM51.037 53.467c0-0.253-0.089-0.447-0.268-0.58-0.179-0.137-0.5-0.28-0.964-0.428-0.464-0.152-0.832-0.301-1.103-0.447-0.738-0.399-1.107-0.936-1.107-1.612 0-0.351 0.098-0.664 0.295-0.938 0.199-0.277 0.484-0.492 0.853-0.647 0.372-0.155 0.789-0.232 1.25-0.232 0.464 0 0.878 0.085 1.241 0.255 0.363 0.167 0.644 0.403 0.844 0.71 0.202 0.307 0.304 0.655 0.304 1.045h-1.339c0-0.298-0.094-0.528-0.281-0.692-0.187-0.167-0.451-0.25-0.79-0.25-0.327 0-0.582 0.070-0.763 0.21-0.182 0.137-0.272 0.319-0.272 0.545 0 0.211 0.106 0.388 0.317 0.531 0.214 0.143 0.528 0.277 0.942 0.402 0.762 0.229 1.317 0.513 1.665 0.853s0.522 0.762 0.522 1.268c0 0.562-0.213 1.005-0.639 1.326-0.425 0.319-0.998 0.478-1.719 0.478-0.5 0-0.955-0.091-1.366-0.272-0.411-0.185-0.725-0.436-0.942-0.754-0.214-0.319-0.322-0.688-0.322-1.107h1.344c0 0.717 0.428 1.076 1.286 1.076 0.319 0 0.567-0.064 0.746-0.192 0.179-0.131 0.268-0.313 0.268-0.545zM58.184 49.757h-1.991v5.415h-1.339v-5.415h-1.964v-1.085h5.295v1.085zM62.863 52.355h-2.571v1.741h3.018v1.076h-4.357v-6.5h4.348v1.085h-3.009v1.549h2.571v1.049zM66.501 52.793h-1.067v2.379h-1.339v-6.5h2.415c0.768 0 1.36 0.171 1.777 0.513s0.625 0.826 0.625 1.451c0 0.444-0.097 0.814-0.29 1.112-0.191 0.295-0.481 0.53-0.871 0.705l1.406 2.656v0.063h-1.438l-1.219-2.379zM65.434 51.708h1.080c0.336 0 0.597-0.085 0.781-0.255 0.185-0.173 0.277-0.409 0.277-0.71 0-0.307-0.088-0.548-0.263-0.723-0.173-0.176-0.439-0.263-0.799-0.263h-1.076v1.951zM73.55 52.882v2.29h-1.339v-6.5h2.536c0.488 0 0.917 0.089 1.286 0.268 0.372 0.179 0.658 0.433 0.857 0.763 0.199 0.327 0.299 0.701 0.299 1.121 0 0.637-0.219 1.14-0.656 1.509-0.435 0.366-1.037 0.549-1.808 0.549h-1.174zM73.55 51.797h1.196c0.354 0 0.624-0.083 0.808-0.25 0.187-0.167 0.281-0.405 0.281-0.714 0-0.319-0.094-0.576-0.281-0.772s-0.447-0.298-0.777-0.304h-1.228v2.040zM82.023 52.355h-2.571v1.741h3.018v1.076h-4.357v-6.5h4.348v1.085h-3.009v1.549h2.571v1.049zM88.238 49.757h-1.991v5.415h-1.339v-5.415h-1.964v-1.085h5.295v1.085zM92.916 52.355h-2.571v1.741h3.018v1.076h-4.357v-6.5h4.348v1.085h-3.009v1.549h2.571v1.049zM96.555 52.793h-1.067v2.379h-1.339v-6.5h2.415c0.768 0 1.36 0.171 1.777 0.513s0.625 0.826 0.625 1.451c0 0.444-0.097 0.814-0.29 1.112-0.191 0.295-0.481 0.53-0.871 0.705l1.406 2.656v0.063h-1.437l-1.219-2.379zM95.488 51.708h1.080c0.336 0 0.597-0.085 0.781-0.255 0.185-0.173 0.277-0.409 0.277-0.71 0-0.307-0.088-0.548-0.263-0.723-0.173-0.176-0.439-0.263-0.799-0.263h-1.076v1.951zM103.358 53.467c0-0.253-0.089-0.447-0.268-0.58-0.179-0.137-0.5-0.28-0.964-0.428-0.464-0.152-0.832-0.301-1.103-0.447-0.738-0.399-1.107-0.936-1.107-1.612 0-0.351 0.098-0.664 0.295-0.938 0.199-0.277 0.484-0.492 0.853-0.647 0.372-0.155 0.789-0.232 1.25-0.232 0.464 0 0.878 0.085 1.241 0.255 0.363 0.167 0.644 0.403 0.844 0.71 0.202 0.307 0.304 0.655 0.304 1.045h-1.339c0-0.298-0.094-0.528-0.281-0.692-0.188-0.167-0.451-0.25-0.79-0.25-0.327 0-0.582 0.070-0.763 0.21-0.181 0.137-0.272 0.319-0.272 0.545 0 0.211 0.106 0.388 0.317 0.531 0.214 0.143 0.528 0.277 0.942 0.402 0.762 0.229 1.317 0.513 1.665 0.853s0.522 0.762 0.522 1.268c0 0.562-0.213 1.005-0.638 1.326-0.426 0.319-0.999 0.478-1.719 0.478-0.5 0-0.955-0.091-1.366-0.272-0.411-0.185-0.725-0.436-0.942-0.754-0.214-0.319-0.321-0.688-0.321-1.107h1.344c0 0.717 0.429 1.076 1.286 1.076 0.318 0 0.567-0.064 0.745-0.192 0.179-0.131 0.268-0.313 0.268-0.545z"></path>
</symbol>
<symbol id="icon-logo-company-5" viewBox="0 0 86 64">
<path  d="M6.478 52.746c0.332 0.376 0.509 0.847 0.499 1.33 0.017 0.315-0.044 0.63-0.178 0.921s-0.338 0.55-0.596 0.76c-0.645 0.446-1.443 0.664-2.249 0.614h-3.954v-8.431h3.873c0.764-0.047 1.523 0.151 2.146 0.56 0.25 0.192 0.448 0.434 0.579 0.708s0.189 0.572 0.173 0.87c0.023 0.465-0.137 0.922-0.45 1.289-0.301 0.335-0.716 0.567-1.179 0.659 0.525 0.088 0.998 0.343 1.336 0.721zM1.84 51.473h1.655c0.376 0.025 0.75-0.074 1.053-0.28 0.124-0.103 0.221-0.231 0.283-0.374s0.087-0.297 0.073-0.45c0.012-0.153-0.014-0.305-0.074-0.448s-0.155-0.271-0.276-0.376c-0.312-0.212-0.697-0.313-1.084-0.284h-1.628v2.212zM4.71 54.706c0.133-0.106 0.237-0.238 0.305-0.386s0.097-0.309 0.086-0.47c0.010-0.163-0.021-0.325-0.090-0.475s-0.176-0.283-0.31-0.39c-0.324-0.22-0.722-0.328-1.125-0.305h-1.736v2.319h1.759c0.396 0.021 0.788-0.082 1.111-0.292z"></path>
<path  d="M14.394 56.37l-2.155-3.295h-0.81v3.295h-1.853v-8.431h3.509c0.884-0.056 1.759 0.2 2.443 0.717 0.49 0.458 0.786 1.060 0.834 1.7s-0.155 1.274-0.573 1.788c-0.433 0.454-1.024 0.757-1.673 0.857l2.294 3.369h-2.015zM11.43 51.926h1.516c1.053 0 1.579-0.426 1.579-1.277 0.011-0.174-0.018-0.348-0.085-0.511s-0.17-0.312-0.302-0.436c-0.333-0.253-0.761-0.376-1.192-0.342h-1.534l0.018 2.566z"></path>
<path  d="M24.524 54.673h-3.693l-0.652 1.697h-1.943l3.392-8.336h2.101l3.378 8.336h-1.943l-0.639-1.697zM24.030 53.396l-1.349-3.559-1.349 3.559h2.699z"></path>
<path  d="M37.205 56.37h-1.84l-4.125-5.733v5.733h-1.835v-8.431h1.835l4.125 5.766v-5.766h1.84v8.431z"></path>
<path  d="M47.704 54.352c-0.38 0.636-0.96 1.154-1.664 1.487-0.801 0.37-1.69 0.553-2.586 0.531h-3.275v-8.431h3.275c0.895-0.021 1.783 0.157 2.586 0.519 0.704 0.325 1.285 0.838 1.664 1.47 0.379 0.686 0.576 1.443 0.576 2.212s-0.197 1.526-0.576 2.212zM45.599 54.15c0.525-0.56 0.814-1.274 0.814-2.012s-0.289-1.452-0.814-2.012c-0.635-0.507-1.462-0.765-2.303-0.717h-1.277v5.457h1.277c0.841 0.048 1.669-0.209 2.303-0.717z"></path>
<path  d="M25.676 1.044c0 0 23.746 8.209 23.242 20.087v20.091c0 0-23.728-8.213-23.233-20.091l-0.009-20.087z"></path>
<path  d="M70.074 36.518c4.485-2.826 9.672-4.576 15.087-5.091v-6.289c-6.239 2.202-11.532 6.194-15.087 11.38z"></path>
<path  d="M67.379 38.413c3.671-6.767 10.034-11.99 17.782-14.592v-18.122c0 0-33.818 11.693-33.103 28.608v28.604c0 0 1.507-0.523 3.877-1.503 0-0.914 0-1.837 0.108-2.764 0.7-7.853 4.777-15.13 11.335-20.231z"></path>
<path  d="M64.163 49.039c0.178-1.984 0.574-3.946 1.183-5.857-4.084 4.405-6.557 9.871-7.071 15.63-0.050 0.544-0.077 1.087-0.090 1.648 1.921-0.844 4.156-1.899 6.504-3.138-0.599-2.725-0.776-5.513-0.526-8.283z"></path>
<path  d="M65.508 49.142c-0.225 2.506-0.085 5.028 0.418 7.5 9.239-5.062 19.621-12.883 19.221-22.336v-0.824c-6.601 0.676-12.777 3.318-17.579 7.521-1.124 2.604-1.819 5.347-2.060 8.139z"></path>
</symbol>
<symbol id="icon-logo-company-6" viewBox="0 0 134 64">
<path  d="M67.449 30.447c-0.63-0.839-0.932-1.83-0.86-2.828v-4.101c0-1.257 0.285-2.212 0.855-2.866s1.549-0.979 2.938-0.976c1.305 0 2.231 0.278 2.778 0.834 0.597 0.71 0.888 1.578 0.821 2.453v0.964h-2.334v-0.976c0.008-0.319-0.014-0.639-0.068-0.955-0.034-0.216-0.151-0.416-0.333-0.567-0.24-0.163-0.541-0.242-0.846-0.221-0.32-0.021-0.637 0.063-0.889 0.234-0.203 0.167-0.339 0.387-0.387 0.626-0.067 0.335-0.098 0.674-0.092 1.014v4.977c-0.037 0.48 0.066 0.961 0.299 1.398 0.116 0.148 0.277 0.265 0.466 0.339s0.397 0.101 0.602 0.078c0.299 0.021 0.596-0.060 0.826-0.225 0.19-0.163 0.312-0.376 0.348-0.605 0.055-0.33 0.079-0.663 0.073-0.997v-1.009h2.334v0.922c0.066 0.913-0.218 1.818-0.807 2.578-0.536 0.609-1.45 0.914-2.793 0.914s-2.358-0.325-2.933-1.001z"></path>
<path  d="M77.165 30.489c-0.59-0.638-0.884-1.569-0.884-2.799v-4.313c0-1.218 0.295-2.14 0.884-2.766s1.575-0.937 2.957-0.934c1.372 0 2.353 0.311 2.942 0.934 0.59 0.626 0.889 1.548 0.889 2.766v4.313c0 1.218-0.299 2.152-0.899 2.795s-1.575 0.964-2.933 0.964c-1.358 0-2.363-0.325-2.957-0.959zM81.209 29.454c0.211-0.4 0.307-0.838 0.28-1.276v-5.281c0.027-0.43-0.068-0.86-0.275-1.251-0.118-0.151-0.284-0.27-0.477-0.344s-0.406-0.099-0.615-0.073c-0.21-0.025-0.423 0-0.617 0.074s-0.36 0.192-0.48 0.343c-0.213 0.391-0.309 0.821-0.28 1.251v5.306c-0.029 0.439 0.067 0.877 0.28 1.276 0.136 0.135 0.304 0.242 0.492 0.316s0.393 0.112 0.6 0.112c0.207 0 0.411-0.038 0.6-0.112s0.356-0.182 0.492-0.316v-0.025z"></path>
<path  d="M86.761 19.802h2.513l1.889 7.958 1.933-7.958h2.445l0.246 11.487h-1.807l-0.193-7.983-1.865 7.983h-1.45l-1.933-8.012-0.179 8.012h-1.826l0.227-11.487z"></path>
<path  d="M98.603 19.802h3.913c2.255 0 3.382 1.087 3.382 3.262 0 2.083-1.187 3.123-3.561 3.12h-1.334v5.105h-2.416l0.014-11.487zM101.946 24.712c0.239 0.026 0.481 0.007 0.71-0.055s0.44-0.168 0.618-0.307c0.277-0.388 0.399-0.844 0.348-1.297 0.013-0.35-0.026-0.701-0.116-1.043-0.034-0.114-0.095-0.221-0.178-0.315s-0.187-0.172-0.305-0.231c-0.335-0.139-0.706-0.202-1.077-0.183h-0.937v3.433h0.937z"></path>
<path  d="M109.382 19.802h2.595l2.662 11.487h-2.251l-0.527-2.649h-2.314l-0.541 2.649h-2.285l2.662-11.487zM111.6 27.31l-0.904-4.822-0.903 4.822h1.807z"></path>
<path  d="M116.789 19.802h1.691l3.237 6.553v-6.553h2.005v11.487h-1.609l-3.256-6.84v6.84h-2.073l0.005-11.487z"></path>
<path  d="M128.419 26.91l-2.691-7.091h2.266l1.643 4.555 1.541-4.555h2.218l-2.657 7.091v4.38h-2.319v-4.38z"></path>
<path  d="M71.179 36.312v0.601h-1.971v4.668h-0.826v-4.668h-1.981v-0.601h4.778z"></path>
<path  d="M77.359 41.58h-0.638c-0.065 0.003-0.129-0.014-0.179-0.050-0.048-0.031-0.085-0.073-0.106-0.121l-0.57-1.251h-2.735l-0.57 1.251c-0.016 0.052-0.046 0.101-0.087 0.142-0.050 0.035-0.114 0.053-0.179 0.050h-0.638l2.416-5.268h0.841l2.445 5.247zM73.358 39.624h2.281l-0.966-2.144c-0.071-0.162-0.131-0.328-0.179-0.496-0.034 0.1-0.063 0.196-0.092 0.279l-0.087 0.221-0.957 2.14z"></path>
<path  d="M81.523 41.063c0.151 0.007 0.303 0.007 0.454 0 0.131-0.012 0.26-0.033 0.387-0.063 0.118-0.025 0.235-0.057 0.348-0.096 0.106-0.038 0.213-0.084 0.324-0.129v-1.185h-0.966c-0.024 0.001-0.048-0.002-0.070-0.009s-0.043-0.018-0.060-0.033c-0.016-0.012-0.028-0.027-0.037-0.043s-0.012-0.035-0.011-0.053v-0.405h1.875v2.019c-0.153 0.094-0.315 0.178-0.483 0.25-0.172 0.073-0.352 0.133-0.536 0.179-0.198 0.050-0.4 0.087-0.604 0.108-0.234 0.023-0.47 0.034-0.705 0.033-0.417 0.003-0.83-0.063-1.218-0.196-0.362-0.126-0.69-0.313-0.966-0.551-0.269-0.24-0.481-0.524-0.623-0.834-0.152-0.349-0.228-0.72-0.222-1.093-0.005-0.375 0.069-0.749 0.217-1.101 0.139-0.312 0.351-0.596 0.623-0.834 0.276-0.237 0.605-0.423 0.966-0.547 0.414-0.134 0.853-0.201 1.295-0.196 0.225-0 0.45 0.015 0.672 0.046 0.196 0.028 0.389 0.072 0.575 0.134 0.169 0.055 0.331 0.125 0.483 0.209 0.148 0.082 0.289 0.174 0.42 0.275l-0.232 0.325c-0.018 0.030-0.045 0.055-0.078 0.072s-0.071 0.027-0.11 0.028c-0.053-0.001-0.105-0.016-0.15-0.042-0.073-0.033-0.15-0.075-0.237-0.125-0.103-0.056-0.211-0.103-0.324-0.142-0.144-0.050-0.293-0.089-0.444-0.117-0.202-0.032-0.408-0.047-0.614-0.046-0.319-0.003-0.635 0.047-0.932 0.146-0.269 0.093-0.511 0.236-0.71 0.417-0.2 0.189-0.353 0.412-0.449 0.655-0.216 0.57-0.216 1.186 0 1.756 0.106 0.248 0.27 0.474 0.483 0.663 0.198 0.181 0.439 0.323 0.705 0.417 0.307 0.091 0.633 0.127 0.957 0.104z"></path>
<path  d="M89.225 40.979h2.638v0.601h-3.445v-5.268h0.826l-0.019 4.668z"></path>
<path  d="M94.607 41.58h-0.826v-5.268h0.826v5.268z"></path>
<path  d="M97.68 36.337c0.049 0.024 0.092 0.057 0.126 0.096l3.532 3.971c-0.005-0.062-0.005-0.125 0-0.188 0-0.058 0-0.117 0-0.171v-3.754h0.72v5.29h-0.415c-0.062 0.004-0.123-0.006-0.179-0.029-0.050-0.026-0.094-0.060-0.131-0.1l-3.527-3.967c0 0.063 0 0.121 0 0.179s0 0.113 0 0.163v3.754h-0.691v-5.269h0.43c0.047 0 0.093 0.009 0.135 0.025z"></path>
<path  d="M108.141 36.312v0.58h-2.928v1.739h2.372v0.559h-2.372v1.798h2.928v0.58h-3.778v-5.256h3.778z"></path>
<path  d="M21.563 3.777l36.686 8.993v31.514l-36.686-8.989v-31.518zM19.21 1.090v35.735l41.388 10.149v-35.731l-41.388-10.153z"></path>
<path  d="M41.392 63.562l-41.392-10.157v-35.731l41.392 10.153v35.735z"></path>
<path  d="M19.896 3.372l36.208 8.88-15.398 13.298-36.213-8.885 15.403-13.293zM19.21 1.090l-19.21 16.584 41.392 10.153 19.206-16.584-41.387-10.153z"></path>
<path  d="M43.721 61.552l16.877-14.574-16.877-4.142v18.716z"></path>
</symbol>
<symbol id="icon-mail" viewBox="0 0 85 64">
<path d="M77.333 0h-69.333c-4.412 0-8 3.589-8 8v48c0 4.411 3.589 8 8 8h69.333c4.411 0 8-3.589 8-8v-48c0-4.412-3.589-8-8-8zM77.333 5.333c0.362 0 0.707 0.075 1.022 0.206l-35.689 30.932-35.689-30.932c0.315-0.131 0.66-0.206 1.022-0.206h69.333zM77.333 58.667h-69.333c-1.471 0-2.667-1.195-2.667-2.667v-44.826l35.586 30.841c0.503 0.435 1.125 0.651 1.747 0.651s1.245-0.216 1.747-0.651l35.586-30.841v44.826c0 1.471-1.195 2.667-2.667 2.667z"></path>
</symbol>
<symbol id="icon-phone" viewBox="0 0 40 64">
<path d="M34 0h-28c-3.309 0-6 2.691-6 6v52c0 3.309 2.691 6 6 6h28c3.309 0 6-2.691 6-6v-52c0-3.309-2.691-6-6-6zM6 4h28c1.103 0 2 0.896 2 2v42h-32v-42c0-1.104 0.896-2 2-2zM34 60h-28c-1.104 0-2-0.896-2-2v-6h32v6c0 1.104-0.897 2-2 2z"></path>
</symbol>
<symbol id="icon-satellite" viewBox="0 0 64 64">
<path fill="#212121" style="fill: var(--color2, #212121)" d="M61.546 44.195l-16.886-17.010 1.874-9.231c0.484 0.189 0.998 0.287 1.517 0.291h0.013c2.385 0.028 4.34-1.882 4.369-4.267s-1.882-4.34-4.267-4.369c-2.385-0.028-4.34 1.882-4.369 4.266-0.006 0.51 0.078 1.018 0.249 1.498l-9.92 1.211-16.181-16.266c-0.198-0.203-0.47-0.318-0.753-0.32-0.28 0.001-0.548 0.113-0.747 0.31l-3.025 3.008c-0.416 0.417-0.416 1.092 0 1.508l1.628 1.651c-6.306 11.596-4.258 25.956 5.039 35.326 0.085 0.082 0.184 0.148 0.292 0.195-0.067 0.361-0.102 0.727-0.105 1.094v12.373h-12.8c-2.944 0.004-5.33 2.389-5.333 5.333v2.133c0 0.589 0.478 1.067 1.067 1.067h49.067c0.589 0 1.067-0.478 1.067-1.067v-2.133c-0.004-2.944-2.389-5.33-5.333-5.333h-12.8v-5.484c2.005 0.421 4.048 0.635 6.097 0.64 4.916-0.005 9.754-1.231 14.080-3.567l1.636 1.646c0.199 0.203 0.469 0.318 0.753 0.32 0.28-0.001 0.548-0.113 0.747-0.31l3.025-3.008c0.416-0.417 0.416-1.092 0-1.508zM46.56 12.466c0.835-0.831 2.186-0.827 3.017 0.008s0.827 2.186-0.008 3.017c-0.4 0.398-0.941 0.621-1.505 0.621h-0.006c-1.178-0.006-2.128-0.966-2.122-2.144 0.003-0.564 0.229-1.104 0.629-1.502h-0.004zM44.049 19.475l-1.197 5.891-2.351-2.365 3.548-3.526zM42.837 17.672l-3.84 3.818-2.971-2.987 6.811-0.831zM48.008 57.6c1.767 0 3.2 1.433 3.2 3.2v1.067h-46.933v-1.067c0-1.767 1.433-3.2 3.2-3.2h40.533zM33.075 53.333v2.133h-10.667v-2.133h10.667zM22.408 51.2v-8.107c0-2.588 2.393-4.693 5.333-4.693s5.333 2.106 5.333 4.693v8.107h-10.667zM35.208 47.808v-4.715c0-3.764-3.349-6.827-7.467-6.827-2.662-0.041-5.151 1.314-6.562 3.572-8.116-8.548-9.943-21.29-4.557-31.774l37.204 37.417c-5.745 2.922-12.33 3.745-18.618 2.326zM57.786 46.441l-42.114-42.362 1.509-1.504 15.87 15.96c0.007 0 0.012 0.014 0.019 0.019l26.229 26.383-1.514 1.504z"></path>
<path fill="#2196f3" style="fill: var(--color1, #2196f3)" d="M27.751 40.533h-0.010c-1.767-0.003-3.202 1.428-3.205 3.195s1.428 3.202 3.195 3.205h0.010c1.767 0.003 3.202-1.428 3.205-3.195s-1.428-3.202-3.195-3.205zM28.498 44.489c-0.201 0.2-0.473 0.312-0.756 0.31-0.589-0.003-1.064-0.483-1.061-1.072 0.001-0.282 0.115-0.552 0.314-0.751 0.198-0.197 0.467-0.309 0.747-0.31 0.589 0.003 1.064 0.483 1.061 1.072-0.001 0.282-0.115 0.552-0.314 0.751h0.010z"></path>
</symbol>
<symbol id="icon-twitter" viewBox="0 0 64 64">
<path  d="M64 12.156c-2.38 1.044-4.916 1.736-7.56 2.072 2.72-1.624 4.796-4.176 5.772-7.252-2.536 1.512-5.336 2.58-8.32 3.176-2.408-2.564-5.84-4.152-9.584-4.152-7.264 0-13.112 5.896-13.112 13.124 0 1.040 0.088 2.040 0.304 2.992-10.908-0.532-20.56-5.76-27.044-13.724-1.132 1.964-1.796 4.212-1.796 6.632 0 4.544 2.34 8.572 5.828 10.904-2.108-0.040-4.176-0.652-5.928-1.616 0 0.040 0 0.092 0 0.144 0 6.376 4.548 11.672 10.512 12.892-1.068 0.292-2.232 0.432-3.44 0.432-0.84 0-1.688-0.048-2.484-0.224 1.7 5.196 6.524 9.016 12.26 9.14-4.464 3.492-10.132 5.596-16.268 5.596-1.076 0-2.108-0.048-3.14-0.18 5.812 3.748 12.7 5.888 20.128 5.888 24.144 0 37.344-20 37.344-37.336 0-0.58-0.020-1.14-0.048-1.696 2.604-1.848 4.792-4.156 6.576-6.812z"></path>
</symbol>
<symbol id="icon-twitter-white" viewBox="0 0 64 64">
<path d="M64 12.156c-2.38 1.044-4.916 1.736-7.56 2.072 2.72-1.624 4.796-4.176 5.772-7.252-2.536 1.512-5.336 2.58-8.32 3.176-2.408-2.564-5.84-4.152-9.584-4.152-7.264 0-13.112 5.896-13.112 13.124 0 1.040 0.088 2.040 0.304 2.992-10.908-0.532-20.56-5.76-27.044-13.724-1.132 1.964-1.796 4.212-1.796 6.632 0 4.544 2.34 8.572 5.828 10.904-2.108-0.040-4.176-0.652-5.928-1.616 0 0.040 0 0.092 0 0.144 0 6.376 4.548 11.672 10.512 12.892-1.068 0.292-2.232 0.432-3.44 0.432-0.84 0-1.688-0.048-2.484-0.224 1.7 5.196 6.524 9.016 12.26 9.14-4.464 3.492-10.132 5.596-16.268 5.596-1.076 0-2.108-0.048-3.14-0.18 5.812 3.748 12.7 5.888 20.128 5.888 24.144 0 37.344-20 37.344-37.336 0-0.58-0.020-1.14-0.048-1.696 2.604-1.848 4.792-4.156 6.576-6.812z"></path>
</symbol>
<symbol id="icon-watch" viewBox="0 0 64 64">
<path fill="#212121" style="fill: var(--color2, #212121)" d="M62.593 30.602c-0.004-16.905-13.71-30.606-30.616-30.602s-30.606 13.711-30.602 30.616c0.003 13.316 8.614 25.102 21.299 29.152 0.121 0.038 0.247 0.058 0.374 0.057 0.241-0 0.478-0.065 0.685-0.188 0.27-0.16 0.472-0.414 0.566-0.713l7.73-24.5c2.113-0.011 3.817-1.733 3.806-3.846s-1.732-3.817-3.846-3.807c-0.568 0.002-1.129 0.133-1.64 0.383l-10.212-10.213c-0.507-0.489-1.314-0.475-1.803 0.031-0.478 0.495-0.478 1.278 0 1.772l10.207 10.218c-0.783 1.599-0.335 3.528 1.073 4.618l-7.365 23.346c-14.556-5.362-22.009-21.508-16.647-36.063s21.508-22.009 36.063-16.647 22.009 21.508 16.647 36.063c-2.62 7.111-8.002 12.862-14.924 15.947l-0.796-3.749c-0.145-0.689-0.823-1.129-1.512-0.983-0.217 0.046-0.419 0.148-0.585 0.296l-7.674 6.851c-0.526 0.468-0.573 1.274-0.105 1.801 0.152 0.171 0.348 0.298 0.566 0.368l9.797 3.127c0.67 0.215 1.389-0.153 1.604-0.824 0.068-0.212 0.080-0.438 0.034-0.655l-0.782-3.678c11.329-4.776 18.684-15.884 18.658-28.178zM31.984 29.327c0.704 0 1.275 0.571 1.275 1.275s-0.571 1.275-1.275 1.275c-0.705 0-1.275-0.571-1.275-1.275s0.571-1.275 1.275-1.275zM36.185 59.055l4.368-3.897 1.206 5.681-5.574-1.784z"></path>
<path fill="#2196f3" style="fill: var(--color1, #2196f3)" d="M30.709 6.37v2.551c0 0.705 0.571 1.275 1.275 1.275s1.275-0.571 1.275-1.275v-2.551c0-0.704-0.571-1.275-1.275-1.275s-1.275 0.571-1.275 1.275z"></path>
<path fill="#2196f3" style="fill: var(--color1, #2196f3)" d="M7.752 29.327c-0.705 0-1.275 0.571-1.275 1.275s0.571 1.275 1.275 1.275h2.551c0.705 0 1.275-0.571 1.275-1.275s-0.571-1.275-1.275-1.275h-2.551z"></path>
<path fill="#2196f3" style="fill: var(--color1, #2196f3)" d="M56.216 31.878c0.705 0 1.275-0.571 1.275-1.275s-0.571-1.275-1.275-1.275h-2.551c-0.704 0-1.275 0.571-1.275 1.275s0.571 1.275 1.275 1.275h2.551z"></path>
</symbol>
<symbol id="icon-button" width="11" height="11" viewBox="0 0 11 11">
<path d="M11 1.10786L9.89214 0L5.5 4.39214L1.10786 0L0 1.10786L4.39214 5.5L0 9.89214L1.10786 11L5.5 6.60786L9.89214 11L11 9.89214L6.60786 5.5L11 1.10786Z"/>
</symbol>
<symbol id="icon-user-mail" viewBox="0 0 43 32">
<path d="M37.333 0h-32c-2.2 0-3.98 1.8-3.98 4l-0.020 24c0 2.2 1.8 4 4 4h32c2.2 0 4-1.8 4-4v-24c0-2.2-1.8-4-4-4zM36.533 8.5l-14.14 8.84c-0.64 0.4-1.48 0.4-2.12 0l-14.14-8.84c-0.5-0.32-0.8-0.86-0.8-1.44 0-1.34 1.46-2.14 2.6-1.44l13.4 8.38 13.4-8.38c1.14-0.7 2.6 0.1 2.6 1.44 0 0.58-0.3 1.12-0.8 1.44z"></path>
</symbol>
<symbol id="icon-user-name" viewBox="0 0 32 32">
<path d="M16 16c4.42 0 8-3.58 8-8s-3.58-8-8-8c-4.42 0-8 3.58-8 8s3.58 8 8 8zM16 20c-5.34 0-16 2.68-16 8v2c0 1.1 0.9 2 2 2h28c1.1 0 2-0.9 2-2v-2c0-5.32-10.66-8-16-8z"></path>
</symbol>
<symbol id="icon-user-tell" viewBox="0 0 32 32">
<path d="M27.419 20.852l-4.201-0.48c-1.009-0.116-2.002 0.232-2.713 0.943l-3.044 3.044c-4.681-2.382-8.519-6.203-10.901-10.901l3.060-3.060c0.711-0.711 1.059-1.704 0.943-2.713l-0.48-4.168c-0.198-1.671-1.604-2.928-3.292-2.928h-2.862c-1.869 0-3.424 1.555-3.308 3.424 0.877 14.126 12.174 25.407 26.284 26.284 1.869 0.116 3.424-1.439 3.424-3.308v-2.861c0.016-1.671-1.241-3.077-2.911-3.275z"></path>
</symbol>

<symbol id="icon-cross" viewBox="0 0 34 32">
<path d="M30.341 3.556v24.889h-26.548v-24.889h26.548zM30.341 0h-26.548c-2.086 0-3.793 1.6-3.793 3.556v24.889c0 1.956 1.707 3.556 3.793 3.556h26.548c2.086 0 3.793-1.6 3.793-3.556v-24.889c0-1.956-1.707-3.556-3.793-3.556z"></path>
</symbol>
<symbol id="icon-mail-modal" viewBox="0 0 32 32">
<path d="M26.667 5.333h-21.333c-1.467 0-2.653 1.2-2.653 2.667l-0.013 16c0 1.467 1.2 2.667 2.667 2.667h21.333c1.467 0 2.667-1.2 2.667-2.667v-16c0-1.467-1.2-2.667-2.667-2.667zM26.133 11l-9.427 5.893c-0.427 0.267-0.987 0.267-1.413 0l-9.427-5.893c-0.333-0.213-0.533-0.573-0.533-0.96 0-0.893 0.973-1.427 1.733-0.96l8.933 5.587 8.933-5.587c0.76-0.467 1.733 0.067 1.733 0.96 0 0.387-0.2 0.747-0.533 0.96z"></path>
</symbol>
<symbol id="icon-phone-modal" viewBox="0 0 32 32">
<path d="M24.882 19.773l-3.268-0.373c-0.785-0.090-1.557 0.18-2.11 0.733l-2.367 2.367c-3.641-1.853-6.626-4.825-8.478-8.478l2.38-2.38c0.553-0.553 0.823-1.325 0.733-2.11l-0.373-3.242c-0.154-1.299-1.248-2.277-2.56-2.277h-2.226c-1.454 0-2.663 1.209-2.573 2.663 0.682 10.987 9.469 19.761 20.443 20.443 1.454 0.090 2.663-1.119 2.663-2.573v-2.226c0.013-1.3-0.965-2.393-2.264-2.547z"></path>
</symbol>
<symbol id="icon-user-modal" viewBox="0 0 32 32">
<path d="M16 16c2.947 0 5.333-2.387 5.333-5.333s-2.387-5.333-5.333-5.333c-2.947 0-5.333 2.387-5.333 5.333s2.387 5.333 5.333 5.333zM16 18.667c-3.56 0-10.667 1.787-10.667 5.333v1.333c0 0.733 0.6 1.333 1.333 1.333h18.667c0.733 0 1.333-0.6 1.333-1.333v-1.333c0-3.547-7.107-5.333-10.667-5.333z"></path>
</symbol>
<symbol id="icon-check-modal" viewBox="0 0 42 32">
<path d="M6.263 15.205l-0.22-0.21-3.307 3.132 11.651 11.114 24.477-23.351-3.285-3.134-21.192 20.197-8.124-7.75z"></path>
</symbol>
<symbol id="icon-plane-send" viewBox="0 0 32 32">
<path fill="#fff" style="fill: var(--color1, #fff)" d="M32 0l-32 18 10.227 3.788 15.773-14.788-11.998 16.186 0.010 0.004-0.012-0.004v8.814l5.735-6.691 7.265 2.691 5-28z"></path>
</symbol>
<symbol id="icon-menu-mobile" viewBox="0 0 48 32">
<path d="M0 5.333v-5.333h48v5.333h-48zM0 18.667h48v-5.333h-48v5.333zM0 32h48v-5.333h-48v5.333z"></path>
</symbol>
<symbol id="icon-mobile-close_24px" viewBox="0 0 32 32">
<path d="M31.439 3.166l-3.166-3.166-12.553 12.553-12.553-12.553-3.166 3.166 12.553 12.553-12.553 12.553 3.166 3.166 12.553-12.553 12.553 12.553 3.166-3.166-12.553-12.553 12.553-12.553z"></path>
</symbol>
</defs>
</svg>
